<?xml version="1.0" encoding="UTF-8"?>
<svg version="1.1" xmlns="http://www.w3.org/2000/svg" width="324" height="207">
<path d="M0 0 C1.88577271 0.27255249 1.88577271 0.27255249 4 1 C5.04806519 2.57583618 5.04806519 2.57583618 5.82763672 4.63916016 C6.12830048 5.41152008 6.42896423 6.18388 6.73873901 6.97964478 C7.04925201 7.82425262 7.35976501 8.66886047 7.6796875 9.5390625 C8.01493439 10.41211029 8.35018127 11.28515808 8.69558716 12.18466187 C9.77021603 14.99272021 10.82298794 17.80840022 11.875 20.625 C12.5753575 22.46930714 13.27716512 24.31306431 13.98046875 26.15625 C15.35153519 29.75492781 16.72162991 33.35396697 18.08886719 36.95410156 C18.573172 38.22912537 18.573172 38.22912537 19.06726074 39.52990723 C19.94414488 41.85208372 20.80716309 44.17902443 21.66894531 46.50683594 C22.17706463 47.84595745 22.68580894 49.18484205 23.1953125 50.5234375 C23.83364014 52.23539307 23.83364014 52.23539307 24.48486328 53.98193359 C26.18132095 57.36118105 28.20565156 59.48150616 31 62 C31.99 61.67 32.98 61.34 34 61 C34 59.74340576 34 58.48681152 34 57.19213867 C34 39.79475911 34 22.39737956 34 5 C31.525 4.505 31.525 4.505 29 4 C29 2.68 29 1.36 29 0 C31.64590014 -0.02684679 34.29153096 -0.04676357 36.9375 -0.0625 C37.69224609 -0.07087891 38.44699219 -0.07925781 39.22460938 -0.08789062 C41.14994313 -0.09652441 43.07535581 -0.05224333 45 0 C47.13142594 2.13142594 46.78301622 6.42719618 47.125 9.375 C47.27388672 10.54675781 47.27388672 10.54675781 47.42578125 11.7421875 C47.83401525 15.19738545 48.11349305 17.65952085 47 21 C47.495 21.99 47.495 21.99 48 23 C48.99 22.505 48.99 22.505 50 22 C56.49721971 21.49422841 62.49099718 21.10338825 68 25 C73.34471904 29.72324008 76.62515804 34.35772655 77.203125 41.515625 C77.34208651 49.62171308 76.29992578 56.45395961 70.640625 62.67578125 C66.09096984 66.34800292 60.47800197 68.47671048 54.625 67.875 C51.73737576 67.17798725 49.49948209 66.56217631 47 65 C46.67 65.33 46.34 65.66 46 66 C43.1883662 66.08861992 40.40141745 66.11522355 37.58984375 66.09765625 C36.74780899 66.0962413 35.90577423 66.09482635 35.03822327 66.09336853 C32.33794665 66.08775263 29.63775172 66.07519748 26.9375 66.0625 C25.11132932 66.05748705 23.28515734 66.05292379 21.45898438 66.04882812 C16.97262458 66.03777804 12.48632616 66.02050279 8 66 C8 65.34 8 64.68 8 64 C9.65 63.34 11.3 62.68 13 62 C12.38170447 56.92997663 11.13290367 53.97677524 9 49 C1.41 48.67 -6.18 48.34 -14 48 C-14.33 49.98 -14.66 51.96 -15 54 C-15.61452621 56.68238446 -16.31082466 59.33518868 -17 62 C-15.7934375 62.433125 -15.7934375 62.433125 -14.5625 62.875 C-12 64 -12 64 -11 66 C-17.6 66 -24.2 66 -31 66 C-30.67 65.01 -30.34 64.02 -30 63 C-29.030625 62.690625 -28.06125 62.38125 -27.0625 62.0625 C-23.95429918 61.3482564 -23.95429918 61.3482564 -22.92208862 59.22843933 C-21.96901863 56.92512639 -21.05186496 54.61941563 -20.18408203 52.2824707 C-19.66311447 50.88500359 -19.66311447 50.88500359 -19.13162231 49.45930481 C-18.76076508 48.45824203 -18.38990784 47.45717926 -18.0078125 46.42578125 C-17.21225986 44.29231015 -16.41668628 42.15884685 -15.62109375 40.02539062 C-14.37399341 36.67292029 -13.12782521 33.32010586 -11.88232422 29.96704102 C-10.67651787 26.72323526 -9.46729208 23.48071886 -8.2578125 20.23828125 C-7.89100372 19.24733963 -7.52419495 18.25639801 -7.14627075 17.23542786 C-4.9647127 11.39061304 -2.61157951 5.66615068 0 0 Z M-3 19 C-4.5026392 22.97817511 -6.00166952 26.95770027 -7.5 30.9375 C-8.14388672 32.64196289 -8.14388672 32.64196289 -8.80078125 34.38085938 C-9.20683594 35.46044922 -9.61289063 36.54003906 -10.03125 37.65234375 C-10.40830078 38.65257568 -10.78535156 39.65280762 -11.17382812 40.68334961 C-12.05598375 42.74705634 -12.05598375 42.74705634 -12 44 C-5.73 44 0.54 44 7 44 C6.26268982 40.31344912 5.53481038 37.53802554 4.15234375 34.13671875 C3.79462891 33.25048828 3.43691406 32.36425781 3.06835938 31.45117188 C2.50858398 30.0831543 2.50858398 30.0831543 1.9375 28.6875 C1.37192383 27.29047852 1.37192383 27.29047852 0.79492188 25.86523438 C-0.13283125 23.57521083 -1.06458001 21.28690004 -2 19 C-2.33 19 -2.66 19 -3 19 Z M46 30 C44.94012413 34.38082028 45.25878515 38.88163605 45.3125 43.375 C45.28478516 44.60734375 45.25707031 45.8396875 45.22851562 47.109375 C45.08026732 53.32030686 45.08026732 53.32030686 47.25683594 58.95483398 C50.00846742 61.38469516 51.97886907 61.99817837 55.625 62.3125 C59.13879616 60.94602371 59.64115665 60.65326423 61.375 57.5625 C64.69578371 49.53250146 64.68238348 41.22208849 62 33 C59.85946966 29.11533384 58.83230767 28.24212587 54.5625 27 C50.52020758 27 49.11079468 27.4850565 46 30 Z " fill="#302F2F" transform="translate(159,72)"/>
<path d="M0 0 C3.70639923 3.70639923 4.49537386 9.38703001 6 14.3125 C6.35578125 15.43462891 6.7115625 16.55675781 7.078125 17.71289062 C11.96380655 33.58224057 14.99391109 50.0785468 7.74609375 65.703125 C1.40881193 76.96172921 -7.16187717 83.6453614 -19.3828125 87.8125 C-29.70952377 90.47745775 -39.27969397 89.27506236 -49 85 C-51 83 -51 83 -51.1953125 79.7421875 C-51.17210937 78.46601563 -51.14890625 77.18984375 -51.125 75.875 C-51.10695312 74.59367187 -51.08890625 73.31234375 -51.0703125 71.9921875 C-51.04710937 71.00476563 -51.02390625 70.01734375 -51 69 C-48.23941741 70.07718679 -45.63254743 71.19138155 -43 72.5625 C-36.59624877 75.63096413 -29.30049402 76.07674511 -22.41015625 74.3515625 C-14.98667734 71.67499229 -8.78473362 67.30544654 -4.625 60.5 C-1.41941411 53.59566116 -0.76262267 47.77894231 -0.9375 40.3125 C-1.05286684 31.06873185 -0.85399974 21.86256733 -0.5 12.625 C-0.45222412 11.37630127 -0.40444824 10.12760254 -0.35522461 8.84106445 C-0.23996096 5.89390282 -0.12178871 2.94689814 0 0 Z " fill="#0EB0F1" transform="translate(113,58)"/>
<path d="M0 0 C0 4.95 0 9.9 0 15 C-1.815 14.195625 -3.63 13.39125 -5.5 12.5625 C-14.07848838 9.02663594 -21.03099737 8.07355805 -30 11 C-38.53753601 14.72730186 -43.35764828 19.96622621 -47.06445312 28.43066406 C-48.3852184 33.46970068 -48.20645644 38.26808664 -48.125 43.453125 C-48.11742676 44.54969421 -48.10985352 45.64626343 -48.10205078 46.77606201 C-48.07767532 50.26753656 -48.04039548 53.75867627 -48 57.25 C-47.94698977 61.85936546 -47.90694648 66.468571 -47.875 71.078125 C-47.85840332 72.14266907 -47.84180664 73.20721313 -47.82470703 74.30401611 C-47.81810059 75.2855365 -47.81149414 76.26705688 -47.8046875 77.27832031 C-47.79421387 78.14402649 -47.78374023 79.00973267 -47.77294922 79.90167236 C-48 82 -48 82 -50 84 C-52.95186865 77.40170537 -55.11609514 70.60051683 -57.1875 63.6875 C-57.44934082 62.81577148 -57.71118164 61.94404297 -57.98095703 61.04589844 C-62.00948844 47.42500073 -63.68291415 32.10657714 -57.60546875 18.828125 C-51.9930108 8.94145941 -44.32382725 1.07959053 -33.5 -2.9375 C-22.3310079 -5.76509294 -10.24177128 -5.2860755 0 0 Z " fill="#1474EA" transform="translate(102,66)"/>
<path d="M0 0 C4.10488479 2.82780952 7.56757505 6.44765011 9.8125 10.9375 C10.50161981 18.38225339 10.44646217 23.9258734 5.8125 29.9375 C0.74275805 34.63628522 -3.51513427 35.41529035 -10.2578125 35.34375 C-15.21643944 34.65615373 -18.63457802 32.38345229 -22.1875 28.9375 C-25.60039584 23.55960353 -25.92719121 18.14268739 -25.1875 11.9375 C-23.20345239 6.09558204 -19.53070565 2.8916752 -14.26953125 -0.18359375 C-9.62379383 -2.14473994 -4.68160719 -1.56053573 0 0 Z " fill="#0D8FF0" transform="translate(90.1875,87.0625)"/>
<path d="M0 0 C1.32 0 2.64 0 4 0 C4 5.28 4 10.56 4 16 C7.96 16 11.92 16 16 16 C16.495 17.98 16.495 17.98 17 20 C16 21 16 21 13.27734375 21.09765625 C12.17519531 21.08605469 11.07304687 21.07445313 9.9375 21.0625 C8.83277344 21.05347656 7.72804688 21.04445313 6.58984375 21.03515625 C5.73519531 21.02355469 4.88054687 21.01195313 4 21 C4.06910558 25.03904921 4.15718016 29.07720578 4.26245117 33.11547852 C4.29559806 34.48775958 4.32366171 35.86017362 4.34643555 37.23266602 C4.38016766 39.21137766 4.4340149 41.18971376 4.48828125 43.16796875 C4.51446533 44.35672607 4.54064941 45.5454834 4.56762695 46.77026367 C5.03715772 50.27756039 5.81944085 52.22839709 8 55 C11.24330099 55.54055017 13.06658584 55.6437339 15.8125 53.75 C17.11258722 51.83408198 17.60856977 50.27029534 18 48 C19.32 48 20.64 48 22 48 C21.7464147 52.31095008 21.4154009 54.49714628 18.625 57.875 C14.92850465 60.867401 11.91471346 61.34610792 7.1953125 61.28515625 C2.6313249 60.69232512 -1.37255896 58.65340022 -4.59179688 55.3828125 C-6.56659241 52.0412722 -6.33895207 49.47197405 -6.29296875 45.609375 C-6.28872391 44.90476135 -6.28447906 44.20014771 -6.28010559 43.47418213 C-6.26336538 41.23239288 -6.22572404 38.99151569 -6.1875 36.75 C-6.17244704 35.22657552 -6.1587597 33.70313689 -6.14648438 32.1796875 C-6.11347791 28.45283059 -6.06172854 24.72650437 -6 21 C-9.3 21 -12.6 21 -16 21 C-16 19.35 -16 17.7 -16 16 C-15.39671875 15.84144531 -14.7934375 15.68289062 -14.171875 15.51953125 C-8.98475192 14.00522596 -5.81806296 12.87741666 -3 8 C-1.87027028 5.35741482 -0.92436209 2.72686817 0 0 Z " fill="#303030" transform="translate(273,79)"/>
<path d="M0 0 C5.61 0 11.22 0 17 0 C17.03738281 2.63613281 17.07476562 5.27226563 17.11328125 7.98828125 C17.15948646 10.54004234 17.21072366 13.09165614 17.26245117 15.64331055 C17.29571464 17.41730812 17.32374218 19.1914119 17.34643555 20.96557617 C17.37995602 23.51527176 17.43226865 26.06399292 17.48828125 28.61328125 C17.49467117 29.40712723 17.5010611 30.20097321 17.50764465 31.01887512 C17.58431607 35.23367032 17.58431607 35.23367032 19.34448242 38.96166992 C21.13750865 40.17704296 21.13750865 40.17704296 24 41 C24 41.66 24 42.32 24 43 C16.08 43 8.16 43 0 43 C0 42.34 0 41.68 0 41 C1.98 40.01 3.96 39.02 6 38 C6 27.44 6 16.88 6 6 C4.02 5.01 2.04 4.02 0 3 C0 2.01 0 1.02 0 0 Z " fill="#303030" transform="translate(237,95)"/>
<path d="M0 0 C0 4.95 0 9.9 0 15 C-2.7225 13.7934375 -2.7225 13.7934375 -5.5 12.5625 C-15.35751743 8.49944832 -23.06454579 8.50323648 -33.125 12.125 C-33.74375 12.41375 -34.3625 12.7025 -35 13 C-35 12.01 -35 11.02 -35 10 C-32.36 9.01 -29.72 8.02 -27 7 C-28.98 7 -30.96 7 -33 7 C-33.33 6.01 -33.66 5.02 -34 4 C-33.34 4 -32.68 4 -32 4 C-32 1.69 -32 -0.62 -32 -3 C-21.47336763 -5.91558664 -9.62362338 -4.96703142 0 0 Z " fill="#146BEA" transform="translate(102,66)"/>
<path d="M0 0 C3.70639923 3.70639923 4.49537386 9.38703001 6 14.3125 C6.53367187 15.99569336 6.53367187 15.99569336 7.078125 17.71289062 C10.99461783 30.43418542 13.78787255 43.75760538 11 57 C10.67 57 10.34 57 10 57 C9.67 51.72 9.34 46.44 9 41 C9 43.64 9 46.28 9 49 C6 51 6 51 2 51 C-3.82654115 35.44670241 -0.75894079 16.2165512 0 0 Z " fill="#1285EB" transform="translate(113,58)"/>
<path d="M0 0 C0.66 0.33 1.32 0.66 2 1 C3.0209375 1.4021875 3.0209375 1.4021875 4.0625 1.8125 C6 3 6 3 6.75 5.125 C6.8325 5.74375 6.915 6.3625 7 7 C5.68 7.33 4.36 7.66 3 8 C3.495 9.98 3.495 9.98 4 12 C2.8681453 13.0979299 1.71842733 14.17744364 0.5625 15.25 C-0.39462891 16.15492188 -0.39462891 16.15492188 -1.37109375 17.078125 C-8.50174486 22.29102299 -14.84566721 23.58255708 -23.5625 23.25 C-24.93245117 23.22292969 -24.93245117 23.22292969 -26.33007812 23.1953125 C-28.55453514 23.14872701 -30.77666967 23.08335485 -33 23 C-33 22.34 -33 21.68 -33 21 C-33.66 21 -34.32 21 -35 21 C-33.70769855 18.41539709 -32.64134313 18.10055964 -30 17 C-28.33985384 16.63557767 -26.67293936 16.30027117 -25 16 C-24.01 15.67 -23.02 15.34 -22 15 C-21.01 15.33 -20.02 15.66 -19 16 C-19 15.01 -19 14.02 -19 13 C-17.68 13 -16.36 13 -15 13 C-15 12.34 -15 11.68 -15 11 C-13.35 11 -11.7 11 -10 11 C-10 10.34 -10 9.68 -10 9 C-9.34 9 -8.68 9 -8 9 C-7.67 8.01 -7.34 7.02 -7 6 C-6.01 6 -5.02 6 -4 6 C-3.67 5.01 -3.34 4.02 -3 3 C-1.4375 1.3125 -1.4375 1.3125 0 0 Z " fill="#0BACF2" transform="translate(109,122)"/>
<path d="M0 0 C0.66 0.66 1.32 1.32 2 2 C1.67 2.66 1.34 3.32 1 4 C1.99 4 2.98 4 4 4 C4 4.66 4 5.32 4 6 C4.639375 6.103125 5.27875 6.20625 5.9375 6.3125 C6.618125 6.539375 7.29875 6.76625 8 7 C9.19200553 10.57601659 9.26799237 13.93126353 9.38671875 17.66015625 C9.41224319 18.40583359 9.43776764 19.15151093 9.46406555 19.91978455 C9.51600861 21.49405157 9.56544326 23.06840307 9.61254883 24.64282227 C9.68733888 27.05729851 9.77793392 29.47086088 9.86914062 31.88476562 C9.91763871 33.41403198 9.96519688 34.9433285 10.01171875 36.47265625 C10.04077805 37.19663101 10.06983734 37.92060577 10.09977722 38.66651917 C10.14467313 40.44409031 10.08133112 42.22372298 10 44 C9.34 44.66 8.68 45.32 8 46 C6.07033719 42.66547807 5.48754657 39.6073591 4.9375 35.8125 C4.6771715 32.09028548 4.6771715 32.09028548 3 29 C2.95919217 27.00041636 2.95745644 24.99954746 3 23 C2.34 23 1.68 23 1 23 C1 20.03 1 17.06 1 14 C0.34 14 -0.32 14 -1 14 C-1.33 9.71 -1.66 5.42 -2 1 C-1.34 0.67 -0.68 0.34 0 0 Z " fill="#0A9DF3" transform="translate(44,104)"/>
<path d="M0 0 C1.32 1.32 2.64 2.64 4 4 C4.66 3.67 5.32 3.34 6 3 C6 10.59 6 18.18 6 26 C5.67 25.01 5.34 24.02 5 23 C2.98491642 22.26676204 2.98491642 22.26676204 1 22 C1 21.34 1 20.68 1 20 C-0.32 20.33 -1.64 20.66 -3 21 C-3 20.01 -3 19.02 -3 18 C-3.33 18 -3.66 18 -4 18 C-4 21.96 -4 25.92 -4 30 C-3.34 30 -2.68 30 -2 30 C-2 32.97 -2 35.94 -2 39 C-1.34 39 -0.68 39 0 39 C0 40.98 0 42.96 0 45 C0.66 45.33 1.32 45.66 2 46 C2.4140625 48.06640625 2.4140625 48.06640625 2.625 50.5625 C2.69976562 51.38878906 2.77453125 52.21507812 2.8515625 53.06640625 C2.92503906 54.02353516 2.92503906 54.02353516 3 55 C1.20907597 52.31361395 0.42554803 50.53473934 -0.47265625 47.5078125 C-0.86227539 46.20263672 -0.86227539 46.20263672 -1.25976562 44.87109375 C-1.52466797 43.96488281 -1.78957031 43.05867188 -2.0625 42.125 C-2.33126953 41.22652344 -2.60003906 40.32804687 -2.87695312 39.40234375 C-5.14220242 31.75359676 -6.20377118 24.97447132 -6.25 17 C-6.270625 16.11054687 -6.29125 15.22109375 -6.3125 14.3046875 C-6.34179065 9.39850442 -6.28591895 5.93081893 -3 2 C-2.01 1.34 -1.02 0.68 0 0 Z " fill="#0F8AEF" transform="translate(47,88)"/>
<path d="M0 0 C3.61514979 2.49043652 6.14272222 5.48193656 8.8125 8.9375 C8.4825 9.5975 8.1525 10.2575 7.8125 10.9375 C4.8125 8.9375 4.8125 8.9375 3.875 6.875 C2.97919871 4.73076091 2.97919871 4.73076091 0.6875 4.1875 C0.06875 4.105 -0.55 4.0225 -1.1875 3.9375 C-1.1875 3.2775 -1.1875 2.6175 -1.1875 1.9375 C-2.7718317 2.02518248 -4.35503567 2.13337329 -5.9375 2.25 C-6.81921875 2.30800781 -7.7009375 2.36601563 -8.609375 2.42578125 C-11.65459084 3.03021045 -13.06193939 3.66668467 -15.1875 5.9375 C-15.85106515 8.79272273 -15.85106515 8.79272273 -15.875 11.9375 C-16.01732705 15.25575361 -16.13369052 17.77607157 -17.1875 20.9375 C-18.5075 20.6075 -19.8275 20.2775 -21.1875 19.9375 C-21.1875 23.34849168 -20.69604594 26.56838314 -20.1875 29.9375 C-23.6133216 26.97883589 -24.97566375 24.12160475 -25.4140625 19.6015625 C-25.58932846 14.29578403 -25.31295222 10.41731486 -22.1875 5.9375 C-15.5988079 -0.68810354 -8.98920645 -2.99640215 0 0 Z " fill="#0C8BF1" transform="translate(90.1875,87.0625)"/>
<path d="M0 0 C0.33 0 0.66 0 1 0 C2.29679091 23.66144649 2.29679091 23.66144649 -5 33 C-7.203125 34.8046875 -7.203125 34.8046875 -9 36 C-9.495 34.515 -9.495 34.515 -10 33 C-8.515 32.505 -8.515 32.505 -7 32 C-7 31.01 -7 30.02 -7 29 C-8.65 28.67 -10.3 28.34 -12 28 C-12.625 25.6875 -12.625 25.6875 -13 23 C-12.01 21.515 -12.01 21.515 -11 20 C-10.55058745 17.61700383 -10.18393057 15.21774516 -9.875 12.8125 C-9.70742187 11.54019531 -9.53984375 10.26789063 -9.3671875 8.95703125 C-9.24601562 7.98121094 -9.12484375 7.00539063 -9 6 C-7 9 -7 9 -7 12 C-5.02 11.34 -3.04 10.68 -1 10 C-1.01160156 9.36191406 -1.02320312 8.72382812 -1.03515625 8.06640625 C-1.04417969 7.24011719 -1.05320312 6.41382812 -1.0625 5.5625 C-1.07410156 4.73878906 -1.08570312 3.91507812 -1.09765625 3.06640625 C-1 1 -1 1 0 0 Z " fill="#129EEC" transform="translate(122,97)"/>
<path d="M0 0 C0.82707306 2.36988243 1.12634 3.61730731 0.328125 6.03515625 C-0.02765625 6.70417969 -0.3834375 7.37320313 -0.75 8.0625 C-1.09546875 8.73410156 -1.4409375 9.40570313 -1.796875 10.09765625 C-3.84829575 13.3412988 -5.32010317 14.77336772 -9 16 C-9.33 16.66 -9.66 17.32 -10 18 C-10.66 18 -11.32 18 -12 18 C-12 18.66 -12 19.32 -12 20 C-13.65 20 -15.3 20 -17 20 C-17 20.66 -17 21.32 -17 22 C-18.32 22 -19.64 22 -21 22 C-21 22.99 -21 23.98 -21 25 C-27.57791873 24.58955515 -33.74051886 24.13391403 -40 22 C-40 21.01 -40 20.02 -40 19 C-39.05125 19.165 -38.1025 19.33 -37.125 19.5 C-27.25701398 20.83029188 -19.12993911 20.26981966 -10.734375 14.421875 C-6.2908871 10.76834051 -3.52416776 7.14930224 -1 2 C-0.67 1.34 -0.34 0.68 0 0 Z " fill="#20ABE4" transform="translate(111,113)"/>
<path d="M0 0 C3.60878112 1.32955094 4.71363944 2.04980489 6.5625 5.3125 C5.9025 5.3125 5.2425 5.3125 4.5625 5.3125 C4.5625 5.9725 4.5625 6.6325 4.5625 7.3125 C-1.3775 7.3125 -7.3175 7.3125 -13.4375 7.3125 C-13.4375 6.6525 -13.4375 5.9925 -13.4375 5.3125 C-14.0975 5.3125 -14.7575 5.3125 -15.4375 5.3125 C-14.14519855 2.72789709 -13.07884313 2.41305964 -10.4375 1.3125 C-8.77555547 0.95636903 -7.109049 0.62041692 -5.4375 0.3125 C-3.4375 -0.6875 -3.4375 -0.6875 0 0 Z " fill="#05B4F7" transform="translate(89.4375,137.6875)"/>
<path d="M0 0 C3.80352473 3.80352473 4.63421117 9.7622782 6.1875 14.8125 C6.56841797 16.00166016 6.94933594 17.19082031 7.34179688 18.41601562 C7.69693359 19.56392578 8.05207031 20.71183594 8.41796875 21.89453125 C8.74563232 22.94487549 9.0732959 23.99521973 9.41088867 25.07739258 C10.02452769 28.12168297 9.83746399 30.03763756 9 33 C8.67 33 8.34 33 8 33 C8 30.69 8 28.38 8 26 C7.34 26 6.68 26 6 26 C6 23.36 6 20.72 6 18 C4.68 18.33 3.36 18.66 2 19 C2 20.65 2 22.3 2 24 C1.34 24.33 0.68 24.66 0 25 C0 16.75 0 8.5 0 0 Z " fill="#1A72D8" transform="translate(113,58)"/>
<path d="M0 0 C1.38125018 2.76250036 1.19079306 4.94731099 1 8 C-1 10 -1 10 -4.5 10.25 C-8 10 -8 10 -10 8 C-10.32954432 4.90228335 -10.45334601 2.82668977 -8.9375 0.0625 C-5.81857551 -1.64787795 -3.34442199 -0.80513863 0 0 Z " fill="#2E2E2E" transform="translate(253,81)"/>
<path d="M0 0 C2.64 0.33 5.28 0.66 8 1 C8 4.96 8 8.92 8 13 C6.370625 12.195625 4.74125 11.39125 3.0625 10.5625 C-2.10852748 8.19132937 -6.34377483 7.27817501 -12 7 C-12 6.67 -12 6.34 -12 6 C-9.03 6 -6.06 6 -3 6 C-2.67 5.01 -2.34 4.02 -2 3 C-1.34 2.34 -0.68 1.68 0 1 C0 0.67 0 0.34 0 0 Z " fill="#1370EC" transform="translate(93,66)"/>
<path d="M0 0 C1.65 0.99 3.3 1.98 5 3 C4.731875 3.66 4.46375 4.32 4.1875 5 C3.795625 5.99 3.40375 6.98 3 8 C2.484375 9.19625 1.96875 10.3925 1.4375 11.625 C-0.45530319 16.61511751 -0.71798794 21.70984266 -1 27 C-1.33 27 -1.66 27 -2 27 C-2 21.39 -2 15.78 -2 10 C-2.99 10.495 -2.99 10.495 -4 11 C-4.66 9.68 -5.32 8.36 -6 7 C-6.99 7.33 -7.98 7.66 -9 8 C-8.34 5.69 -7.68 3.38 -7 1 C-5.5459375 1.0309375 -5.5459375 1.0309375 -4.0625 1.0625 C-1.12534105 1.35618499 -1.12534105 1.35618499 0 0 Z " fill="#1B80E2" transform="translate(54,82)"/>
<path d="M0 0 C3.61514979 2.49043652 6.14272222 5.48193656 8.8125 8.9375 C8.4825 9.5975 8.1525 10.2575 7.8125 10.9375 C4.8125 8.9375 4.8125 8.9375 3.875 6.875 C2.97919871 4.73076091 2.97919871 4.73076091 0.6875 4.1875 C0.06875 4.105 -0.55 4.0225 -1.1875 3.9375 C-1.1875 3.2775 -1.1875 2.6175 -1.1875 1.9375 C-3.25076977 2.02510589 -5.3131716 2.13329273 -7.375 2.25 C-8.52355469 2.30800781 -9.67210938 2.36601563 -10.85546875 2.42578125 C-14.39597126 2.9695161 -16.34794995 3.78755496 -19.1875 5.9375 C-21.01379794 9.00430799 -21.01379794 9.00430799 -22.1875 11.9375 C-22.8475 11.9375 -23.5075 11.9375 -24.1875 11.9375 C-24.10490329 9.12921195 -23.62974482 7.41349508 -21.703125 5.33984375 C-14.8647065 -0.60724242 -8.94269178 -2.98089726 0 0 Z " fill="#267CCA" transform="translate(90.1875,87.0625)"/>
<path d="M0 0 C0.33 0 0.66 0 1 0 C1 8.25 1 16.5 1 25 C1.66 25 2.32 25 3 25 C3 27.97 3 30.94 3 34 C3.66 34 4.32 34 5 34 C5 35.98 5 37.96 5 40 C5.66 40.33 6.32 40.66 7 41 C7.4140625 43.06640625 7.4140625 43.06640625 7.625 45.5625 C7.69976562 46.38878906 7.77453125 47.21507812 7.8515625 48.06640625 C7.92503906 49.02353516 7.92503906 49.02353516 8 50 C6.20907597 47.31361395 5.42554803 45.53473934 4.52734375 42.5078125 C4.13772461 41.20263672 4.13772461 41.20263672 3.74023438 39.87109375 C3.47533203 38.96488281 3.21042969 38.05867188 2.9375 37.125 C2.66873047 36.22652344 2.39996094 35.32804687 2.12304688 34.40234375 C0.41941223 28.64992153 -1.12428408 23.24819594 -1.1328125 17.20703125 C-1.13410156 16.32982422 -1.13539062 15.45261719 -1.13671875 14.54882812 C-1.13285156 13.64583984 -1.12898438 12.74285156 -1.125 11.8125 C-1.12886719 10.89791016 -1.13273437 9.98332031 -1.13671875 9.04101562 C-1.13478516 7.73100586 -1.13478516 7.73100586 -1.1328125 6.39453125 C-1.13168457 5.59893799 -1.13055664 4.80334473 -1.12939453 3.98364258 C-1 2 -1 2 0 0 Z " fill="#2899DA" transform="translate(42,93)"/>
<path d="M0 0 C0.99 0 1.98 0 3 0 C3 4.95 3 9.9 3 15 C0.2775 13.7934375 0.2775 13.7934375 -2.5 12.5625 C-12.35751743 8.49944832 -20.06454579 8.50323648 -30.125 12.125 C-30.74375 12.41375 -31.3625 12.7025 -32 13 C-32 12.01 -32 11.02 -32 10 C-23.66116944 6.54944943 -14.58544149 4.98672447 -5.87890625 8.125 C-3.52432984 9.30061829 -1.25066696 10.63595942 1 12 C1.33 8.37 1.66 4.74 2 1 C1.34 0.67 0.68 0.34 0 0 Z " fill="#2D6FC4" transform="translate(99,66)"/>
<path d="M0 0 C1.21429688 -0.02578125 2.42859375 -0.0515625 3.6796875 -0.078125 C7.33905292 0.27038599 9.21319936 1.05784591 12.125 3.25 C12.125 3.58 12.125 3.91 12.125 4.25 C5.195 4.25 -1.735 4.25 -8.875 4.25 C-9.205 3.26 -9.535 2.27 -9.875 1.25 C-6.42834258 0.10111419 -3.63148095 0.0460653 0 0 Z " fill="#393939" transform="translate(155.875,115.75)"/>
<path d="M0 0 C0.79470703 -0.01224609 1.58941406 -0.02449219 2.40820312 -0.03710938 C7.07282268 -0.04868411 10.79940048 0.39975575 15.1875 2.1875 C15.1875 2.8475 15.1875 3.5075 15.1875 4.1875 C12.1874376 4.21471831 9.18762744 4.23444378 6.1875 4.25 C4.92873047 4.26256836 4.92873047 4.26256836 3.64453125 4.27539062 C-1.60569339 4.29574033 -6.61705662 3.95118207 -11.8125 3.1875 C-11.8125 2.5275 -11.8125 1.8675 -11.8125 1.1875 C-7.82467564 -0.14177479 -4.17508371 0.0033374 0 0 Z " fill="#1D6ADC" transform="translate(82.8125,61.8125)"/>
<path d="M0 0 C0.33 0 0.66 0 1 0 C1.19220663 4.23538316 1.37093557 8.47105371 1.53710938 12.70751953 C1.59556424 14.14908142 1.65772144 15.59049807 1.72363281 17.03173828 C1.81765355 19.10161905 1.89841315 21.17165438 1.9765625 23.2421875 C2.05511475 25.11173096 2.05511475 25.11173096 2.13525391 27.01904297 C2 30 2 30 0 32 C-1.93242285 28.65479742 -2.5463853 25.55232518 -3.125 21.75 C-3.29257812 20.67234375 -3.46015625 19.5946875 -3.6328125 18.484375 C-3.75398438 17.66453125 -3.87515625 16.8446875 -4 16 C-2.68 15.67 -1.36 15.34 0 15 C0 10.05 0 5.1 0 0 Z " fill="#0EAEF6" transform="translate(52,118)"/>
<path d="M0 0 C0.33 0 0.66 0 1 0 C1 5.94 1 11.88 1 18 C-0.65 18 -2.3 18 -4 18 C-4 17.34 -4 16.68 -4 16 C-5.65 16 -7.3 16 -9 16 C-8.67 13.69 -8.34 11.38 -8 9 C-7.67 9.99 -7.34 10.98 -7 12 C-5.02 11.34 -3.04 10.68 -1 10 C-1.01160156 9.36191406 -1.02320312 8.72382812 -1.03515625 8.06640625 C-1.04417969 7.24011719 -1.05320312 6.41382812 -1.0625 5.5625 C-1.07410156 4.73878906 -1.08570312 3.91507812 -1.09765625 3.06640625 C-1 1 -1 1 0 0 Z " fill="#0C92F1" transform="translate(122,97)"/>
<path d="M0 0 C0.33 0.99 0.66 1.98 1 3 C-0.0390625 4.75390625 -0.0390625 4.75390625 -1.625 6.5625 C-2.13289063 7.16191406 -2.64078125 7.76132813 -3.1640625 8.37890625 C-6.95450279 11.72578438 -10.75081663 12.27693961 -15.6875 12.25 C-17.11642578 12.25773437 -17.11642578 12.25773437 -18.57421875 12.265625 C-21 12 -21 12 -23 10 C-19.37 10 -15.74 10 -12 10 C-11.67 8.68 -11.34 7.36 -11 6 C-8.36 6 -5.72 6 -3 6 C-3 4.68 -3 3.36 -3 2 C-2.01 2 -1.02 2 0 2 C0 1.34 0 0.68 0 0 Z " fill="#1D9DE3" transform="translate(98,110)"/>
<path d="M0 0 C2.9719385 1.12451727 5.33440687 2.22293791 8 4 C7.67 4.66 7.34 5.32 7 6 C5.35 5.01 3.7 4.02 2 3 C1.67 6.3 1.34 9.6 1 13 C2.32 13 3.64 13 5 13 C5 13.99 5 14.98 5 16 C6.65 16.33 8.3 16.66 10 17 C7 18 7 18 3.875 16.625 C1 15 1 15 0 14 C-0.07271741 11.64686445 -0.08370868 9.29166332 -0.0625 6.9375 C-0.05347656 5.64714844 -0.04445312 4.35679687 -0.03515625 3.02734375 C-0.02355469 2.02832031 -0.01195312 1.02929688 0 0 Z " fill="#2BADE2" transform="translate(62,127)"/>
<path d="M0 0 C4.47427924 -0.08948558 8.60563789 0.14256349 13 1 C12.67 2.32 12.34 3.64 12 5 C8.04 4.67 4.08 4.34 0 4 C0 2.68 0 1.36 0 0 Z " fill="#0B9DF4" transform="translate(74,116)"/>
<path d="M0 0 C0.82707306 2.36988243 1.12634 3.61730731 0.328125 6.03515625 C-0.02765625 6.70417969 -0.3834375 7.37320313 -0.75 8.0625 C-1.26820312 9.06990234 -1.26820312 9.06990234 -1.796875 10.09765625 C-3.84829575 13.3412988 -5.32010317 14.77336772 -9 16 C-9.33 16.66 -9.66 17.32 -10 18 C-12.5625 18.625 -12.5625 18.625 -15 19 C-14.34 18.360625 -13.68 17.72125 -13 17.0625 C-10.54596188 14.59439862 -8.16415742 12.06583387 -5.8125 9.5 C-5.13832031 8.7678125 -4.46414062 8.035625 -3.76953125 7.28125 C-1.94565632 4.92994105 -0.96193538 2.80194509 0 0 Z " fill="#269ACB" transform="translate(111,113)"/>
<path d="M0 0 C0.33 0.99 0.66 1.98 1 3 C-0.14453125 5.04296875 -0.14453125 5.04296875 -1.8125 7.1875 C-2.35519531 7.90292969 -2.89789063 8.61835937 -3.45703125 9.35546875 C-4.22080078 10.16951172 -4.22080078 10.16951172 -5 11 C-5.66 11 -6.32 11 -7 11 C-7.103125 11.763125 -7.20625 12.52625 -7.3125 13.3125 C-8.05790616 16.22636046 -8.84458939 17.02950397 -11 19 C-9.18509958 11.17324192 -5.25013415 5.97343055 0 0 Z " fill="#276AC7" transform="translate(54,72)"/>
<path d="M0 0 C1.32 0.66 2.64 1.32 4 2 C4 3.32 4 4.64 4 6 C4.33 6.99 4.66 7.98 5 9 C3.68 9 2.36 9 1 9 C-0.61949011 6.42786866 -1.04408751 5.32330841 -0.625 2.25 C-0.41875 1.5075 -0.2125 0.765 0 0 Z " fill="#292929" transform="translate(204,129)"/>
<path d="M0 0 C0 0.33 0 0.66 0 1 C-0.99 1.10957031 -1.98 1.21914062 -3 1.33203125 C-10.01609031 2.15766253 -16.49677503 3.08018471 -23 6 C-23 5.01 -23 4.02 -23 3 C-15.22270481 -0.21819111 -8.35740901 -0.32098157 0 0 Z " fill="#246DCB" transform="translate(90,73)"/>
<path d="M0 0 C0.66 0 1.32 0 2 0 C2.04898438 0.58007812 2.09796875 1.16015625 2.1484375 1.7578125 C2.59944323 6.47004482 3.4642867 10.5025539 5 15 C4.67 15.66 4.34 16.32 4 17 C0.5246131 11.02667877 -0.57374185 6.88490225 0 0 Z " fill="#2D92D9" transform="translate(65,100)"/>
<path d="M0 0 C0.33 0 0.66 0 1 0 C1.22134176 2.12368444 1.42670007 4.24904024 1.625 6.375 C1.74101563 7.55835938 1.85703125 8.74171875 1.9765625 9.9609375 C1.98429687 10.96382812 1.99203125 11.96671875 2 13 C1.34 13.66 0.68 14.32 0 15 C-2.09350689 11.5980513 -2.17942163 8.94727588 -2 5 C-1.34 5 -0.68 5 0 5 C0 3.35 0 1.7 0 0 Z " fill="#1BB5EB" transform="translate(52,135)"/>
<path d="M0 0 C0.66 0.33 1.32 0.66 2 1 C-6.261959 7.51936219 -6.261959 7.51936219 -11 9 C-9.56284053 5.35242679 -7.92288356 4.02674425 -4.5 2.1875 C-3.7059375 1.74792969 -2.911875 1.30835937 -2.09375 0.85546875 C-1.4028125 0.57316406 -0.711875 0.29085937 0 0 Z " fill="#2563CA" transform="translate(67,64)"/>
<path d="M0 0 C0.33 0.99 0.66 1.98 1 3 C-1.16888758 6.73440042 -3.75500739 9.59402415 -7.875 10.9375 C-8.57625 10.958125 -9.2775 10.97875 -10 11 C-9.34 10.67 -8.68 10.34 -8 10 C-8 9.34 -8 8.68 -8 8 C-7.360625 7.7525 -6.72125 7.505 -6.0625 7.25 C-3.81258459 6.18437567 -3.81258459 6.18437567 -3.25 3.875 C-3.1675 3.25625 -3.085 2.6375 -3 2 C-2.01 2 -1.02 2 0 2 C0 1.34 0 0.68 0 0 Z " fill="#2C96D7" transform="translate(98,110)"/>
<path d="M0 0 C1.8871875 0.0309375 1.8871875 0.0309375 3.8125 0.0625 C3.8125 0.7225 3.8125 1.3825 3.8125 2.0625 C0.1825 2.3925 -3.4475 2.7225 -7.1875 3.0625 C-7.1875 2.4025 -7.1875 1.7425 -7.1875 1.0625 C-4.43671116 0.14557039 -2.82801087 -0.04636083 0 0 Z " fill="#2E6DC4" transform="translate(78.1875,61.9375)"/>
<path d="M0 0 C3.46941546 0.45822468 6.67395049 0.89131683 10 2 C10 2.66 10 3.32 10 4 C6.7 3.67 3.4 3.34 0 3 C0 2.01 0 1.02 0 0 Z " fill="#2864BA" transform="translate(88,62)"/>
<path d="M0 0 C-4.95 2.97 -4.95 2.97 -10 6 C-7.65701369 1.31402739 -5.4251219 -1.80837397 0 0 Z " fill="#1382E8" transform="translate(79,90)"/>
<path d="M0 0 C2.35953094 2.35953094 2.49141413 3.77895617 3 7 C2.34 7 1.68 7 1 7 C1 9.64 1 12.28 1 15 C0.67 15 0.34 15 0 15 C0 10.05 0 5.1 0 0 Z " fill="#2A63C3" transform="translate(113,58)"/>
<path d="M0 0 C0 0.66 0 1.32 0 2 C-1.65 2 -3.3 2 -5 2 C-5 2.66 -5 3.32 -5 4 C-6.65 4 -8.3 4 -10 4 C-10 3.34 -10 2.68 -10 2 C-6.49223216 0.39644899 -3.85645121 -0.22036864 0 0 Z " fill="#23A1E0" transform="translate(99,131)"/>
<path d="M0 0 C0.639375 0.2475 1.27875 0.495 1.9375 0.75 C2.2675 1.74 2.5975 2.73 2.9375 3.75 C1.9475 4.08 0.9575 4.41 -0.0625 4.75 C-0.0625 4.09 -0.0625 3.43 -0.0625 2.75 C-1.7125 2.75 -3.3625 2.75 -5.0625 2.75 C-3.74519507 0.11539013 -2.92708522 -0.35479821 0 0 Z " fill="#0A98F8" transform="translate(118.0625,110.25)"/>
<path d="M0 0 C0 3 0 3 0 3 Z M-3 3 C-2.34 3.33 -1.68 3.66 -1 4 C-2.25 6 -2.25 6 -4 8 C-5.32 8 -6.64 8 -8 8 C-7 5 -7 5 -5.0625 3.75 C-4.381875 3.5025 -3.70125 3.255 -3 3 Z " fill="#222222" transform="translate(136,130)"/>
<path d="M0 0 C2.9719385 1.12451727 5.33440687 2.22293791 8 4 C7.67 4.66 7.34 5.32 7 6 C3.535 4.02 3.535 4.02 0 2 C0 1.34 0 0.68 0 0 Z " fill="#268ADC" transform="translate(62,127)"/>
<path d="M0 0 C1.68496298 0.96885372 3.35178756 1.96986723 5 3 C5 3.33 5 3.66 5 4 C2.03 4 -0.94 4 -4 4 C-2.68 3.67 -1.36 3.34 0 3 C0 2.01 0 1.02 0 0 Z " fill="#202020" transform="translate(143,134)"/>
<path d="" fill="#000000" transform="translate(0,0)"/>
</svg>
